<?xml version="1.0" encoding="UTF-8"?>
<svg id="Layer_2" data-name="Layer 2" xmlns="http://www.w3.org/2000/svg" viewBox="0 0 249 128">
  <defs>
    <style>
      .cls-1 {
        stroke-width: 0px;
        fill: white;
      }
    </style>
  </defs>
  <g id="V1">
    <g id="NEW_LOGO_THICK_" data-name="NEW LOGO (THICK)">
      <path class="cls-1" d="m61.5,75c-3.04,0-5.5,2.46-5.5,5.5v14.92c-.03.98-.12,3.58-3.5,3.58s-3.47-2.6-3.5-3.5v-62.92c.03-.98.12-3.58,3.5-3.58s3.47,2.6,3.5,3.5v15c0,3.04,2.46,5.5,5.5,5.5s5.5-2.46,5.5-5.5v-15c0-5.83-3.86-14.5-14.5-14.5s-14.5,8.67-14.5,14.5v63c0,5.83,3.86,14.5,14.5,14.5s14.5-8.67,14.5-14.5v-15c0-3.04-2.46-5.5-5.5-5.5Z"/>
      <path class="cls-1" d="m109.5,0c-3.04,0-5.5,2.46-5.5,5.5v53h-7V5.5c0-3.04-2.46-5.5-5.5-5.5s-5.5,2.46-5.5,5.5v53h-12.5c-3.04,0-5.5,2.46-5.5,5.5s2.46,5.5,5.5,5.5h12.5v53c0,3.04,2.46,5.5,5.5,5.5s5.5-2.46,5.5-5.5v-53h7v53c0,3.04,2.46,5.5,5.5,5.5s5.5-2.46,5.5-5.5V5.5c0-3.04-2.46-5.5-5.5-5.5Z"/>
      <path class="cls-1" d="m148.5,0c-10.64,0-14.5,8.67-14.5,14.5v99c0,5.83,3.86,14.5,14.5,14.5s14.5-8.67,14.5-14.5v-33.1c0-3.04-2.46-5.5-5.5-5.5s-5.5,2.46-5.5,5.5v33.1c0,1.6-.61,3.5-3.5,3.5-.93,0-3.38,0-3.5-3.5v-44h12.5c3.04,0,5.5-2.46,5.5-5.5s-2.46-5.5-5.5-5.5h-12.5V14.5c0-1.6.61-3.5,3.5-3.5.93,0,3.38,0,3.5,3.5v33c0,3.04,2.46,5.5,5.5,5.5s5.5-2.46,5.5-5.5V14.5c0-5.83-3.86-14.5-14.5-14.5Z"/>
      <path class="cls-1" d="m196.5,18c-10.64,0-14.5,8.67-14.5,14.5v72c0,3.04,2.46,5.5,5.5,5.5s5.5-2.46,5.5-5.5v-35s12.5,0,12.5,0c3.04,0,5.5-2.46,5.5-5.5s-2.46-5.5-5.5-5.5h-12.5v-25.92c.03-.98.12-3.58,3.5-3.58s3.47,2.6,3.5,3.5v15c0,3.04,2.46,5.5,5.5,5.5s5.5-2.46,5.5-5.5v-15c0-5.83-3.86-14.5-14.5-14.5Z"/>
      <path class="cls-1" d="m24.5,45c-3.04,0-5.5,2.46-5.5,5.5v27c0,3.04,2.46,5.5,5.5,5.5s5.5-2.46,5.5-5.5v-27c0-3.04-2.46-5.5-5.5-5.5Z"/>
      <path class="cls-1" d="m5.5,53c-3.04,0-5.5,2.46-5.5,5.5v11c0,3.04,2.46,5.5,5.5,5.5s5.5-2.46,5.5-5.5v-11c0-3.04-2.46-5.5-5.5-5.5Z"/>
      <path class="cls-1" d="m224.5,45c-3.04,0-5.5,2.46-5.5,5.5v27c0,3.04,2.46,5.5,5.5,5.5s5.5-2.46,5.5-5.5v-27c0-3.04-2.46-5.5-5.5-5.5Z"/>
      <path class="cls-1" d="m243.5,53c-3.04,0-5.5,2.46-5.5,5.5v11c0,3.04,2.46,5.5,5.5,5.5s5.5-2.46,5.5-5.5v-11c0-3.04-2.46-5.5-5.5-5.5Z"/>
      <circle class="cls-1" cx="205.5" cy="104.5" r="5.5"/>
      <circle class="cls-1" cx="172.5" cy="122.5" r="5.5"/>
      <circle class="cls-1" cx="124.5" cy="122.5" r="5.5"/>
      <circle class="cls-1" cx="76.5" cy="104.5" r="5.5"/>
    </g>
  </g>
</svg>